# xmcd
#
# Track frame offsets:
#	150
#	12985
#	25295
#	36337
#	47600
#	57310
#	68330
#	84680
#	102255
#	116557
#	128770
#	139292
#	150037
#	161595
#	171757
#	183240
#	196912
#
# Disc length: 2756 seconds
#
# Revision: 0
# Processed by: cddbd v1.5.2PL0 Copyright (c) Steve Scherf et al.
# Submitted via: audiograbber 1.83.01
#
DISCID=d70ac211
DTITLE=Various Artist - Country Music's Greatest Love Songs
DYEAR=1900
DGENRE=Country
TTITLE0=Anne Murray - I Just Fell In Love Again
TTITLE1=Faron Young - Sweet Dreams Of You
TTITLE2=Johnny Cash - I Love You Because
TTITLE3=Patsy Cline - Walking After Midnight
TTITLE4=Boxcar willie - Walking the Floor Over You
TTITLE5=George Jones - The Tender Years
TTITLE6=Lynn Anderson - When I Dream
TTITLE7=Kenny Rogers - Something's Burning
TTITLE8=Razzy Bailey - She left Love All Over Me
TTITLE9=Tammy Wynette - Stand By Your Man
TTITLE10=Ferlin Husky - On The Wings Of A Dove
TTITLE11=Conway Twitty - It's Only Make Believe
TTITLE12=Sammi Smith - Help Me Make It Through The Night
TTITLE13=Jimmi Dean - A Thing Called Love
TTITLE14=Johnny Paycheck - Please Release Me
TTITLE15=Barbara Fairchild - The Teddy Bear Song
TTITLE16=Hank Locklin - Please Help me I'm Falling
EXTD=
EXTT0=
EXTT1=
EXTT2=
EXTT3=
EXTT4=
EXTT5=
EXTT6=
EXTT7=
EXTT8=
EXTT9=
EXTT10=
EXTT11=
EXTT12=
EXTT13=
EXTT14=
EXTT15=
EXTT16=
PLAYORDER=
